<?xml version="1.0" encoding="UTF-8"?>
<svg width="131px" height="131px" viewBox="0 0 131 131" version="1.1" xmlns="http://www.w3.org/2000/svg" xmlns:xlink="http://www.w3.org/1999/xlink">
    <title>Group 10</title>
    <g id="Page-3" stroke="none" stroke-width="1" fill="none" fill-rule="evenodd">
        <g id="Onboarding-Copy-8" transform="translate(-779.000000, -281.000000)">
            <g id="Group-10" transform="translate(844.712971, 346.240376) rotate(-12.000000) translate(-844.712971, -346.240376) translate(789.712971, 291.240376)">
                <path d="M110,55 C110,85.3756462 85.3756462,110 55,110 C24.6243538,110 0,85.3756462 0,55 C0,24.6243538 24.6243538,0 55,0 C85.3756462,0 110,24.6243538 110,55" id="Fill-3"></path>
                <path d="M33.9276,34.689984 C32.866008,34.64496 31.895472,34.150368 31.14216,33.481056 C30.293592,32.727408 29.727096,31.751328 29.29752,30.750048 C29.039976,30.15012 28.823928,29.536248 28.608552,28.922712 C28.5138,28.652568 28.120344,28.6608 28.022064,28.922712 C27.69228,29.799336 27.287232,30.649248 26.807928,31.465392 C26.410104,32.142432 25.966248,32.821152 25.316256,33.319608 C25.288872,33.34044 25.261152,33.360768 25.233096,33.380592 C24.520776,33.788328 23.680608,33.990432 22.83288,33.950448 C22.495704,33.934488 22.411536,34.444872 22.752072,34.501152 C25.069632,34.88436 27.012552,36.556128 27.71832,38.611944 C27.918408,39.1944 28.015008,39.796008 27.999048,40.407024 C27.99048,40.739832 28.482888,40.7652 28.596456,40.481448 C29.345568,38.611104 30.212784,36.526896 32.284224,35.594832 C32.796288,35.364504 33.357576,35.242032 33.9276,35.2506 C34.320552,35.256648 34.317192,34.706448 33.9276,34.689984" id="Fill-5" fill="#DB005E"></path>
                <path d="M91.827288,44.179968 C91.10052,44.149224 90.435912,43.810536 89.920152,43.352232 C89.33904,42.836136 88.951296,42.167832 88.65696,41.482224 C88.480728,41.071464 88.33272,40.651128 88.185384,40.23096 C88.120368,40.045992 87.851064,40.051704 87.783696,40.23096 C87.557904,40.831224 87.280536,41.413176 86.952264,41.971944 C86.679936,42.435624 86.376024,42.900312 85.930992,43.241688 C85.912176,43.255968 85.893192,43.269744 85.873872,43.283352 C85.386336,43.562568 84.810936,43.701 84.230496,43.673616 C83.999496,43.662696 83.941872,44.012136 84.175056,44.050776 C85.762152,44.313192 87.092376,45.457944 87.575712,46.865448 C87.712632,47.26428 87.778824,47.676384 87.767904,48.094704 C87.762024,48.322512 88.0992,48.339984 88.176984,48.145608 C88.689888,46.864944 89.283768,45.437784 90.702192,44.79972 C91.052808,44.6418 91.437024,44.557968 91.827288,44.563848 C92.096424,44.568048 92.09424,44.191224 91.827288,44.179968" id="Fill-6" fill="#009BDD"></path>
                <path d="M91.065072,26.370792 C91.065072,29.108856 88.845456,31.32864 86.107392,31.32864 C83.369328,31.32864 81.149544,29.108856 81.149544,26.370792 C81.149544,23.632728 83.369328,21.413112 86.107392,21.413112 C88.845456,21.413112 91.065072,23.632728 91.065072,26.370792" id="Fill-11" fill="#BCCD00"></path>
                <path d="M75.58992,55.027224 C75.58992,55.027224 77.731248,27.068328 57.050112,25.04124 C36.368808,23.014152 36.761424,42.973392 36.761424,42.973392 L40.406016,42.788592 C40.406016,42.788592 38.931816,28.397544 53.201232,27.39324 C67.726176,26.370792 71.993376,38.360952 71.722392,55.027224 L75.58992,55.027224" id="Fill-17" fill="#CDD2DA"></path>
                <path d="M49.153944,26.788104 C46.846464,27.38988 44.872464,28.44156 43.24824,29.93928 C39.269328,33.608568 38.334912,39.103848 38.116344,41.613936 L39.071592,41.565384 C39.080832,39.291504 39.51696,34.614048 42.59808,30.950136 C44.2722,28.959504 46.46796,27.567456 49.153944,26.788104 Z M73.023384,53.73816 L74.352096,53.73816 C74.39964,51.474696 74.30724,46.311384 72.81792,41.085576 C71.184288,35.352912 68.426232,31.257408 64.582392,28.834344 C65.145192,29.230152 65.679768,29.667792 66.185784,30.147432 C70.804104,34.522488 73.045056,42.247464 73.023384,53.73816 Z M75.58992,56.316456 L71.722392,56.316456 C71.376816,56.316456 71.045856,56.177688 70.8036,55.9314 C70.561176,55.685112 70.427952,55.3518 70.433496,55.006224 C70.522368,49.543704 70.099344,44.88372 69.176856,41.155632 C68.184816,37.14816 66.581928,34.074264 64.412712,32.018952 C61.68708,29.436792 58.049208,28.343784 53.291784,28.67928 C49.472472,28.947912 46.53852,30.270408 44.571408,32.60964 C41.12388,36.709008 41.68248,42.598248 41.688528,42.657216 C41.72448,43.00884 41.614608,43.359792 41.384448,43.62792 C41.154288,43.896216 40.824168,44.058168 40.471368,44.076144 L36.826776,44.260944 C36.475992,44.279256 36.137472,44.154264 35.882448,43.916376 C35.627256,43.678656 35.479248,43.347528 35.472528,42.99876 C35.465136,42.622608 35.361816,33.721464 41.483568,28.059528 C45.2718,24.556224 50.551704,23.109576 57.175776,23.758392 C66.204432,24.643248 72.477216,30.412872 75.315744,40.44348 C77.403984,47.822544 76.8978,54.831 76.87512,55.125672 C76.823712,55.797504 76.2636,56.316456 75.58992,56.316456 L75.58992,56.316456 Z" id="Fill-18" fill="#CDD2DA"></path>
                <path d="M73.368792,93.170616 L36.985032,93.170616 C32.715816,93.170616 29.222928,89.677728 29.222928,85.40868 L29.222928,56.654136 C29.222928,52.38492 32.715816,48.892032 36.985032,48.892032 L73.368792,48.892032 C77.638008,48.892032 81.130896,52.38492 81.130896,56.654136 L81.130896,85.40868 C81.130896,89.677728 77.638008,93.170616 73.368792,93.170616" id="Fill-19" fill="#F3F4F6"></path>
                <path d="M74.384184,93.170616 L39.792984,93.170616 C35.523936,93.170616 32.03088,89.677728 32.03088,85.40868 L32.03088,56.654136 C32.03088,52.38492 35.523936,48.892032 39.792984,48.892032 L74.384184,48.892032 C78.653232,48.892032 82.14612,52.38492 82.14612,56.654136 L82.14612,85.40868 C82.14612,89.677728 78.653232,93.170616 74.384184,93.170616" id="Fill-20" fill="#F3F4F6"></path>
                <path d="M70.008288,72.571968 C70.008288,79.437624 64.442616,85.003296 57.57696,85.003296 C50.711304,85.003296 45.145632,79.437624 45.145632,72.571968 C45.145632,65.706312 50.711304,60.14064 57.57696,60.14064 C64.442616,60.14064 70.008288,65.706312 70.008288,72.571968" id="Fill-21" fill="#D3D3D3"></path>
                <path d="M68.47764,72.571968 C68.47764,79.437624 62.911968,85.003296 56.046312,85.003296 C49.180656,85.003296 43.614816,79.437624 43.614816,72.571968 C43.614816,65.706312 49.180656,60.14064 56.046312,60.14064 C62.911968,60.14064 68.47764,65.706312 68.47764,72.571968" id="Fill-22" fill="#CDD2DA"></path>
                <polygon id="Fill-29" fill="#AC5197" points="61.2269785 13.2423504 53.3338627 15.635632 51 6.39556012 58.8923519 4"></polygon>
            </g>
        </g>
    </g>
</svg>